<?xml version="1.0" encoding="UTF-8"?>
<svg baseProfile="tiny-ps" version="1.2"
     xmlns="http://www.w3.org/2000/svg"
     width="160" height="160" viewBox="0 0 160 160">
  <title>in-house-research-bimi</title>

  <!-- Solid background (choose your brand colour if desired) -->
  <rect x="0" y="0" width="160" height="160" fill="#FFFFFF"/>

  <!-- Outer shape -->
  <path fill="#36918A" d="M132.016,43.484L85.513,16.634c-3.399-1.961-7.625-1.961-11.024,0l-46.51,26.853
    c-3.388,1.957-5.491,5.602-5.491,9.511v54.746c0,3.282,1.766,6.342,4.611,7.984l48.278,27.875c1.427,0.822,3.026,1.234,4.624,1.234
    c1.599,0,3.198-0.412,4.622-1.234l48.276-27.872c2.844-1.642,4.613-4.706,4.613-7.992V53.004
    C137.512,49.09,135.406,45.441,132.016,43.484z M131.425,107.009c0,1.571-0.844,3.035-2.204,3.82l-47.006,27.138
    c-1.367,0.788-3.062,0.788-4.429,0l-47.008-27.142c-1.358-0.784-2.202-2.245-2.202-3.811V53.709c0-2.179,1.173-4.21,3.06-5.3
    l45.286-26.145c0.949-0.548,2.015-0.823,3.08-0.823c1.065,0,2.131,0.275,3.08,0.823l45.28,26.142
    c1.89,1.091,3.064,3.126,3.064,5.309V107.009z"/>

  <!-- Bars (solid fills; no gradients) -->
  <path fill="#1B2031" d="M57.043,109.185c-2.599,0-4.705-2.121-4.705-4.739V84.367c0-2.617,2.106-4.739,4.705-4.739
    s4.705,2.121,4.705,4.739v20.078C61.748,107.063,59.641,109.185,57.043,109.185z"/>
  <path fill="#8C181B" d="M72.188,109.265c-2.599,0-4.705-2.121-4.705-4.739v-9.97c0-2.617,2.106-4.739,4.705-4.739
    c2.599,0,4.705,2.121,4.705,4.739v9.97C76.893,107.144,74.787,109.265,72.188,109.265z"/>
  <path fill="#E6613A" d="M87.576,109.335c-2.599,0-4.705-2.121-4.705-4.739V74.408c0-2.617,2.106-4.739,4.705-4.739
    c2.599,0,4.705,2.122,4.705,4.739v30.188C92.281,107.214,90.175,109.335,87.576,109.335z"/>
  <path fill="#7DAFA0" d="M102.957,109.285c-2.599,0-4.705-2.121-4.705-4.739V55.404c0-2.617,2.106-4.739,4.705-4.739
    c2.599,0,4.705,2.122,4.705,4.739v49.143C107.662,107.164,105.556,109.285,102.957,109.285z"/>
</svg>